<svg width="58" height="58" xmlns="http://www.w3.org/2000/svg" fill-rule="evenodd" clip-rule="evenodd">
 <defs>.fil0 {fill:#1B1C1F}
    .fil1 {fill:#1B1C1F;fill-rule:nonzero}</defs>
 <g id="imagebot_1">
  <g transform="translate(0.00031)" id="imagebot_2">
   <path class="fil0" d="M24.186,22.5 C18.7394,25.6445 27.0497,41.224 33.0097,37.783 C34.0681,39.6162 37.4773,45.5211 38.5357,47.3542 C36.0211,48.8061 33.8925,49.7213 30.9772,48.0547 C22.8826,43.4274 13.9722,28.0007 14.2262,18.7987 C14.3142,15.6027 16.1972,14.3505 18.6602,12.9285 C19.7186,14.7617 23.1278,20.6665 24.1862,22.4997 L24.186,22.5 z" id="imagebot_5"/>
   <path class="fil0" d="M26.47,22.24 C25.8815,22.5798 25.1242,22.377 24.7844,21.7884 L19.5749,12.7652 C19.2351,12.1766 19.4379,11.4193 20.0264,11.0795 L22.7644,9.49872 C23.353,9.15888 24.1104,9.36187 24.4502,9.95042 L29.6597,18.9735 C29.9995,19.562 29.7966,20.3193 29.2081,20.6591 L26.4701,22.2399 L26.47,22.24 z" id="imagebot_4"/>
   <path class="fil0" d="M40.702,46.89 C40.1135,47.2298 39.3562,47.027 39.0164,46.4384 L33.8069,37.4152 C33.4671,36.8266 33.6699,36.0693 34.2584,35.7296 L36.9964,34.1488 C37.585,33.809 38.3424,34.012 38.6822,34.6005 L43.8917,43.6236 C44.2315,44.2121 44.0286,44.9695 43.4401,45.3092 L40.7021,46.89 L40.702,46.89 z" id="imagebot_3"/>
  </g>
  <title>imagebot_1</title>
 </g>
 <metadata>image/svg+xmlOpenclipartphone icon2006-10-06T16:21:45an icon representing a phonehttps://openclipart.org/detail/399/phone-icon-by-molumenmolumenblack &amp; whitebuttoncircleiconphoneroundsign</metadata>
</svg>